<svg width="18" height="18" viewBox="0 0 18 18" fill="none" xmlns="http://www.w3.org/2000/svg">
<path d="M8.83741 3.2125C9.94992 3.2125 11.0375 3.5424 11.9625 4.16048C12.8875 4.77857 13.6085 5.65707 14.0342 6.68491C14.46 7.71274 14.5714 8.84374 14.3543 9.93488C14.1373 11.026 13.6015 12.0283 12.8149 12.815C12.0282 13.6016 11.0259 14.1374 9.93479 14.3544C8.84365 14.5715 7.71264 14.4601 6.68481 14.0343C5.65698 13.6086 4.77847 12.8876 4.16039 11.9626C3.54231 11.0376 3.21241 9.95002 3.21241 8.8375C3.21427 7.34623 3.8075 5.91657 4.86199 4.86208C5.91647 3.80759 7.34613 3.21436 8.83741 3.2125ZM8.83741 0.400002C7.16863 0.400002 5.53732 0.894851 4.14978 1.82198C2.76224 2.7491 1.68079 4.06686 1.04217 5.60861C0.403558 7.15036 0.236468 8.84686 0.56203 10.4836C0.887593 12.1203 1.69119 13.6237 2.87119 14.8037C4.0512 15.9837 5.55462 16.7873 7.19133 17.1129C8.82805 17.4384 10.5245 17.2713 12.0663 16.6327C13.608 15.9941 14.9258 14.9127 15.8529 13.5251C16.7801 12.1376 17.2749 10.5063 17.2749 8.8375C17.2749 6.59973 16.386 4.45363 14.8036 2.87129C13.2213 1.28895 11.0752 0.400002 8.83741 0.400002Z" fill="white"/>
</svg>
